<?xml version="1.0" encoding="UTF-8" standalone="no"?>
<!-- Created with Inkscape (http://www.inkscape.org/) -->
<svg xmlns:dc="http://purl.org/dc/elements/1.1/" xmlns:cc="http://creativecommons.org/ns#" xmlns:rdf="http://www.w3.org/1999/02/22-rdf-syntax-ns#" xmlns:svg="http://www.w3.org/2000/svg" xmlns="http://www.w3.org/2000/svg" xmlns:sodipodi="http://sodipodi.sourceforge.net/DTD/sodipodi-0.dtd" xmlns:inkscape="http://www.inkscape.org/namespaces/inkscape" id="svg2" version="1.1" inkscape:version="0.47pre4 r22446" width="321.44626" height="242.04375" xml:space="preserve" sodipodi:docname="58294main_The.Brain.in.Space.pdf"><metadata id="metadata8"><rdf:RDF><cc:Work rdf:about=""><dc:format>image/svg+xml</dc:format><dc:type rdf:resource="http://purl.org/dc/dcmitype/StillImage"/><dc:title/></cc:Work></rdf:RDF></metadata><defs id="defs6"><inkscape:perspective sodipodi:type="inkscape:persp3d" inkscape:vp_x="0 : 0.5 : 1" inkscape:vp_y="0 : 1000 : 0" inkscape:vp_z="1 : 0.5 : 1" inkscape:persp3d-origin="0.5 : 0.33333333 : 1" id="perspective10"/><clipPath clipPathUnits="userSpaceOnUse" id="clipPath20"><path d="M 0,792 612,792 612,0 0,0 0,792 z" id="path22"/></clipPath><clipPath clipPathUnits="userSpaceOnUse" id="clipPath26"><path d="m 0.06,792 612,0 0,-792 -612,0 0,792 z" id="path28"/></clipPath><clipPath clipPathUnits="userSpaceOnUse" id="clipPath44"><path d="m 69,63.74 49.35,0 0,-41.64 -49.35,0 0,41.64 z" clip-rule="evenodd" id="path46"/></clipPath><clipPath clipPathUnits="userSpaceOnUse" id="clipPath50"><path d="M 0,792 612,792 612,0 0,0 0,792 z" id="path52"/></clipPath><clipPath clipPathUnits="userSpaceOnUse" id="clipPath56"><path d="m 0.06,792 612,0 0,-792 -612,0 0,792 z" id="path58"/></clipPath><clipPath clipPathUnits="userSpaceOnUse" id="clipPath68"><path d="M 0,792 612,792 612,0 0,0 0,792 z" id="path70"/></clipPath><clipPath clipPathUnits="userSpaceOnUse" id="clipPath74"><path d="m 0.06,792 612,0 0,-792 -612,0 0,792 z" id="path76"/></clipPath><clipPath clipPathUnits="userSpaceOnUse" id="clipPath180"><path d="m 65.9,297.28 268.05,0 0,-200.45 -268.05,0 0,200.45 z" clip-rule="evenodd" id="path182"/></clipPath><clipPath clipPathUnits="userSpaceOnUse" id="clipPath186"><path d="M 0,792 612,792 612,0 0,0 0,792 z" id="path188"/></clipPath><clipPath clipPathUnits="userSpaceOnUse" id="clipPath192"><path d="m 0.06,792 612,0 0,-792 -612,0 0,792 z" id="path194"/></clipPath><clipPath clipPathUnits="userSpaceOnUse" id="clipPath204"><path d="m 307.859,291.847 c 0.797,-7.467 8.265,-9.859 8.265,-17.326 0,-2.32 -1.16,-3.553 -1.16,-5.873 0,-2.827 1.45,-4.277 1.45,-7.104 0,-8.555 -3.698,-13.122 -3.698,-21.676 0,-5.945 4.278,-8.7 4.278,-14.645 0,-1.015 -0.363,-1.595 -0.58,-2.61 l 0.87,-6.887 c -0.943,-3.987 -4.713,-5.292 -4.713,-9.424 0,-2.61 0,-4.132 0,-6.742 0,-3.987 3.843,-5.437 3.843,-9.425 0,-5.437 -2.32,-8.409 -2.32,-13.846 0,-5.365 5.292,-6.67 7.757,-11.455 2.465,-4.712 -3.848,-14.727 0.938,-16.996 4.892,-2.32 5.151,-8.885 5.151,-17.077 0,-3.842 -3.769,-5.22 -3.769,-9.062 0,-3.48 2.61,-5.075 2.61,-8.554 0,-4.133 0,-6.525 0,-10.657 -2.683,0 -4.133,-0.073 -6.815,-0.073 -3.117,0 -4.785,0.87 -7.902,0.87 -2.972,0 -4.567,0 -7.54,0 -9.642,0 -14.354,6.09 -23.996,6.09 -1.305,0 -3.407,1.16 -3.407,-0.145 0,-0.508 0.58,-0.798 0.58,-1.305 0,-2.61 -4.06,-0.652 -6.597,-1.16 -4.785,-1.015 -7.395,-2.32 -12.252,-2.32 -8.337,0 -11.962,7.177 -20.299,7.177 -7.54,0 -11.744,-2.247 -19.284,-2.247 -3.19,0 -5.002,0 -8.192,0 -6.887,0 -10.439,3.407 -17.326,3.407 -4.06,0 -6.163,-1.74 -10.222,-1.74 -2.9,0 -7.178,0.435 -7.032,-0.29 -0.653,-0.072 -4.277,-0.022 -4.929,-0.022 -7.613,0 -7.613,5.822 -15.225,5.822 -8.627,0 -13.412,0.29 -22.039,0.29 -2.683,0 -3.19,-3.77 -5.872,-3.77 -2.03,0 -3.263,0 -5.293,0 -4.929,0 -7.611,2.32 -12.541,2.32 -5.365,0 -8.41,-1.16 -13.775,-1.16 -9.786,0 -15.369,2.392 -24.431,6.017 l 0,172.052 235.467,-0.454" id="path206"/></clipPath><clipPath clipPathUnits="userSpaceOnUse" id="clipPath214"><path d="m 65.9,297.28 268.05,0 0,-200.45 -268.05,0 0,200.45 z" clip-rule="evenodd" id="path216"/></clipPath><clipPath clipPathUnits="userSpaceOnUse" id="clipPath220"><path d="M 0,792 612,792 612,0 0,0 0,792 z" id="path222"/></clipPath><clipPath clipPathUnits="userSpaceOnUse" id="clipPath226"><path d="m 0.06,792 612,0 0,-792 -612,0 0,792 z" id="path228"/></clipPath><clipPath clipPathUnits="userSpaceOnUse" id="clipPath250"><path d="M 0,792 612,792 612,0 0,0 0,792 z" id="path252"/></clipPath><clipPath clipPathUnits="userSpaceOnUse" id="clipPath256"><path d="m 0.06,792 612,0 0,-792 -612,0 0,792 z" id="path258"/></clipPath></defs><sodipodi:namedview pagecolor="#ffffff" bordercolor="#666666" borderopacity="1" objecttolerance="10" gridtolerance="10" guidetolerance="10" inkscape:pageopacity="0" inkscape:pageshadow="2" inkscape:window-width="1024" inkscape:window-height="716" id="namedview4" showgrid="false" inkscape:zoom="1.0626263" inkscape:cx="122.4092" inkscape:cy="123.32485" inkscape:window-x="0" inkscape:window-y="25" inkscape:window-maximized="1" inkscape:current-layer="g12"/><g id="g12" inkscape:groupmode="layer" inkscape:label="58294main_The.Brain.in.Space" transform="matrix(1.25,0,0,-1.25,-90.153125,365.71312)"><g id="g176" transform="matrix(0.95901366,0,0,0.95901366,8.2259992,8.0231988)"><g id="g178" clip-path="url(#clipPath180)"><g id="g184" clip-path="url(#clipPath186)"><g id="g190" clip-path="url(#clipPath192)"><path d="m 308.929,288.637 c 0.798,-7.467 8.265,-9.859 8.265,-17.326 0,-2.32 -1.16,-3.553 -1.16,-5.873 0,-2.827 1.45,-4.277 1.45,-7.104 0,-8.555 -3.698,-13.122 -3.698,-21.676 0,-5.945 4.278,-8.7 4.278,-14.645 0,-1.015 -0.363,-1.595 -0.58,-2.609 l 0.869,-6.888 c -0.942,-3.987 -4.712,-5.292 -4.712,-9.424 0,-2.61 0,-4.132 0,-6.742 0,-3.987 3.843,-5.437 3.843,-9.425 0,-5.437 -2.32,-8.409 -2.32,-13.846 0,-5.365 5.292,-6.67 7.757,-11.455 2.465,-4.712 -3.848,-14.727 0.937,-16.996 4.893,-2.32 5.152,-8.885 5.152,-17.077 0,-3.842 -3.769,-5.22 -3.769,-9.062 0,-3.48 2.61,-5.075 2.61,-8.554 0,-4.133 0,-6.525 0,-10.657 -2.683,0 -4.133,-0.073 -6.815,-0.073 -3.117,0 -4.785,0.87 -7.902,0.87 -2.972,0 -4.567,0 -7.54,0 -9.642,0 -14.354,6.09 -23.996,6.09 -1.305,0 -3.407,1.16 -3.407,-0.145 0,-0.508 0.58,-0.798 0.58,-1.305 0,-2.61 -4.06,-0.652 -6.597,-1.16 -4.785,-1.015 -7.395,-2.32 -12.252,-2.32 -8.337,0 -11.962,7.177 -20.299,7.177 -7.539,0 -11.744,-2.247 -19.284,-2.247 -3.19,0 -5.002,0 -8.192,0 -6.887,0 -10.439,3.407 -17.327,3.407 -4.059,0 -6.162,-1.74 -10.221,-1.74 -2.9,0 -7.178,0.435 -7.033,-0.29 -0.652,-0.072 -4.276,-0.022 -4.928,-0.022 -7.612,0 -7.613,5.822 -15.225,5.822 -8.627,0 -13.412,0.29 -22.039,0.29 -2.682,0 -3.19,-3.77 -5.872,-3.77 -2.03,0 -3.263,0 -5.293,0 -4.929,0 -7.612,2.32 -12.541,2.32 -5.365,0 -8.41,-1.16 -13.775,-1.16 -9.787,0 -15.369,2.392 -24.431,6.017 l 0,172.052 235.467,-0.454 z" style="fill:#231f20;fill-opacity:1;fill-rule:nonzero;stroke:#231f20;stroke-width:0.53899997;stroke-linecap:butt;stroke-linejoin:miter;stroke-miterlimit:3.86400008;stroke-opacity:1;stroke-dasharray:none" id="path196"/><path d="m 307.859,291.847 c 0.797,-7.467 8.265,-9.859 8.265,-17.326 0,-2.32 -1.16,-3.553 -1.16,-5.873 0,-2.827 1.45,-4.277 1.45,-7.104 0,-8.555 -3.698,-13.122 -3.698,-21.676 0,-5.945 4.278,-8.7 4.278,-14.645 0,-1.015 -0.363,-1.595 -0.58,-2.61 l 0.87,-6.887 c -0.943,-3.987 -4.713,-5.292 -4.713,-9.424 0,-2.61 0,-4.132 0,-6.742 0,-3.987 3.843,-5.437 3.843,-9.425 0,-5.437 -2.32,-8.409 -2.32,-13.846 0,-5.365 5.292,-6.67 7.757,-11.455 2.465,-4.712 -3.848,-14.727 0.938,-16.996 4.892,-2.32 5.151,-8.885 5.151,-17.077 0,-3.842 -3.769,-5.22 -3.769,-9.062 0,-3.48 2.61,-5.075 2.61,-8.554 0,-4.133 0,-6.525 0,-10.657 -2.683,0 -4.133,-0.073 -6.815,-0.073 -3.117,0 -4.785,0.87 -7.902,0.87 -2.972,0 -4.567,0 -7.54,0 -9.642,0 -14.354,6.09 -23.996,6.09 -1.305,0 -3.407,1.16 -3.407,-0.145 0,-0.508 0.58,-0.798 0.58,-1.305 0,-2.61 -4.06,-0.652 -6.597,-1.16 -4.785,-1.015 -7.395,-2.32 -12.252,-2.32 -8.337,0 -11.962,7.177 -20.299,7.177 -7.54,0 -11.744,-2.247 -19.284,-2.247 -3.19,0 -5.002,0 -8.192,0 -6.887,0 -10.439,3.407 -17.326,3.407 -4.06,0 -6.163,-1.74 -10.222,-1.74 -2.9,0 -7.178,0.435 -7.032,-0.29 -0.653,-0.072 -4.277,-0.022 -4.929,-0.022 -7.613,0 -7.613,5.822 -15.225,5.822 -8.627,0 -13.412,0.29 -22.039,0.29 -2.683,0 -3.19,-3.77 -5.872,-3.77 -2.03,0 -3.263,0 -5.293,0 -4.929,0 -7.611,2.32 -12.541,2.32 -5.365,0 -8.41,-1.16 -13.775,-1.16 -9.786,0 -15.369,2.392 -24.431,6.017 l 0,172.052 235.467,-0.454" style="fill:#ffffff;fill-opacity:1;fill-rule:nonzero;stroke:none" id="path198"/></g></g></g></g><g id="g200" transform="matrix(0.95901366,0,0,0.95901366,8.2259992,8.0231988)"><g id="g202" clip-path="url(#clipPath204)"><path d="m 111.939,292.301 0,-190.448 m 20.275,190.448 0,-190.448 m 18.536,190.448 0,-190.448 m 20.275,190.448 0,-190.448 m 18.535,190.448 0,-190.448 m 19.406,190.448 0,-190.448 m 19.405,190.448 0,-190.448 m 19.406,190.448 0,-190.448 m 19.405,190.448 0,-190.448 m 19.405,190.448 0,-190.448 m 19.406,190.448 0,-190.448 m -213.46,190.448 0,-190.448 m -19.405,190.448 0,-174.649 m -8.013,58.216 265.176,0 m -265.176,20.276 265.176,0 m -265.176,18.535 255.681,0 m -255.681,20.275 255.681,0 m -255.681,18.536 255.681,0 m -255.681,19.405 254.811,0 M 65.115,156.463 l 265.176,0 m -265.176,-19.406 265.176,0 m -266.4,-19.405 265.175,0 m -3.668,176.017 0,-194.054" style="fill:none;stroke:#a7a5a6;stroke-width:0.53899997;stroke-linecap:butt;stroke-linejoin:miter;stroke-miterlimit:3.86400008;stroke-opacity:1;stroke-dasharray:none" id="path208"/></g></g><g id="g210" transform="matrix(0.95901366,0,0,0.95901366,8.2259992,8.0231988)"><g id="g212" clip-path="url(#clipPath214)"><g id="g218" clip-path="url(#clipPath220)"><g id="g224" clip-path="url(#clipPath226)"><path d="m 307.859,291.847 c 0.797,-7.467 8.265,-9.859 8.265,-17.326 0,-2.32 -1.16,-3.553 -1.16,-5.873 0,-2.827 1.45,-4.277 1.45,-7.104 0,-8.555 -3.698,-13.122 -3.698,-21.676 0,-5.945 4.278,-8.7 4.278,-14.645 0,-1.015 -0.363,-1.595 -0.58,-2.61 l 0.87,-6.887 c -0.943,-3.987 -4.713,-5.292 -4.713,-9.424 0,-2.61 0,-4.132 0,-6.742 0,-3.987 3.843,-5.437 3.843,-9.425 0,-5.437 -2.32,-8.409 -2.32,-13.846 0,-5.365 5.292,-6.67 7.757,-11.455 2.465,-4.712 -3.848,-14.727 0.938,-16.996 4.892,-2.32 5.151,-8.885 5.151,-17.077 0,-3.842 -3.769,-5.22 -3.769,-9.062 0,-3.48 2.61,-5.075 2.61,-8.554 0,-4.133 0,-6.525 0,-10.657 -2.683,0 -4.133,-0.073 -6.815,-0.073 -3.117,0 -4.785,0.87 -7.902,0.87 -2.972,0 -4.567,0 -7.54,0 -9.642,0 -14.354,6.09 -23.996,6.09 -1.305,0 -3.407,1.16 -3.407,-0.145 0,-0.508 0.58,-0.798 0.58,-1.305 0,-2.61 -4.06,-0.652 -6.597,-1.16 -4.785,-1.015 -7.395,-2.32 -12.252,-2.32 -8.337,0 -11.962,7.177 -20.299,7.177 -7.54,0 -11.744,-2.247 -19.284,-2.247 -3.19,0 -5.002,0 -8.192,0 -6.887,0 -10.439,3.407 -17.326,3.407 -4.06,0 -6.163,-1.74 -10.222,-1.74 -2.9,0 -7.178,0.435 -7.032,-0.29 -0.653,-0.072 -4.277,-0.022 -4.929,-0.022 -7.613,0 -7.613,5.822 -15.225,5.822 -8.627,0 -13.412,0.29 -22.039,0.29 -2.683,0 -3.19,-3.77 -5.872,-3.77 -2.03,0 -3.263,0 -5.293,0 -4.929,0 -7.611,2.32 -12.541,2.32 -5.365,0 -8.41,-1.16 -13.775,-1.16 -9.786,0 -15.369,2.392 -24.431,6.017 l 0,172.052 235.467,-0.454 z" style="fill:none;stroke:#231f20;stroke-width:0.53899997;stroke-linecap:butt;stroke-linejoin:miter;stroke-miterlimit:3.86400008;stroke-opacity:1;stroke-dasharray:none" id="path230"/><path d="m 251.011,237.319 c 0,0 -10.825,24.089 -51.748,22.639 -40.922,-1.45 -122.287,-42.031 -109.964,-77.621 8.959,-25.874 35.577,-16.172 35.577,0 0,11.886 -15.093,16.379 -19.406,6.468 -4.312,-9.911 9.495,-17.249 25.874,-22.64 16.38,-5.39 89.354,-19.65 90.559,-20.357" style="fill:none;stroke:#231f20;stroke-width:3.23399997;stroke-linecap:butt;stroke-linejoin:miter;stroke-miterlimit:3.86400008;stroke-opacity:1;stroke-dasharray:8.56, 4.28;stroke-dashoffset:0" id="path232"/><path d="m 224.765,153.6 22.142,-25.621 6.594,1.45 -28.156,27.034 -0.58,-2.863" style="fill:#231f20;fill-opacity:1;fill-rule:nonzero;stroke:none" id="path234"/><path d="m 250.059,155.013 -35.948,-19.242 0.87,-5.762 35.078,22.432 0,2.572" style="fill:#231f20;fill-opacity:1;fill-rule:nonzero;stroke:none" id="path236"/><path d="m 249.479,225.794 c 0,4.443 3.602,8.045 8.045,8.045 4.443,0 8.044,-3.602 8.044,-8.045 0,-4.443 -3.601,-8.044 -8.044,-8.044 -4.443,0 -8.045,3.601 -8.045,8.044" style="fill:#231f20;fill-opacity:1;fill-rule:nonzero;stroke:none" id="path238"/><path d="m 270.398,219.867 10.291,-2.758 m -30.531,-72.78 10.291,-2.757 m 12.84,69.061 -16.194,-60.438" style="fill:none;stroke:#231f20;stroke-width:1.07000005;stroke-linecap:butt;stroke-linejoin:miter;stroke-miterlimit:3.86400008;stroke-opacity:1;stroke-dasharray:none" id="path240"/><path d="m 273.173,210.203 -2.584,0.692 4.315,5.767 0.853,-7.152 -2.584,0.693" style="fill:#231f20;fill-opacity:1;fill-rule:evenodd;stroke:none" id="path242"/><path d="m 257.21,150.626 2.584,-0.693 -4.315,-5.767 -0.853,7.152 2.584,-0.692" style="fill:#231f20;fill-opacity:1;fill-rule:evenodd;stroke:none" id="path244"/></g></g></g></g></g></svg>